<svg xmlns="http://www.w3.org/2000/svg" width="136" height="30" viewBox="0 0 136 30">
  <g fill="none" fill-rule="evenodd">
    <path fill="#E84131" d="M135.7221,10.7619 L133.2431,10.7619 L132.2041,14.9279 C131.9971,14.8219 131.7841,14.7449 131.5641,14.6959 C131.3461,14.6459 131.1081,14.6199 130.8541,14.6199 C129.7711,14.6199 128.8061,14.9889 127.9651,15.7259 C127.1241,16.4659 126.5501,17.4489 126.2451,18.6729 C125.9551,19.8379 126.0091,20.7539 126.4031,21.4119 C126.7971,22.0699 127.4971,22.4019 128.4931,22.4019 C128.8411,22.4019 129.1971,22.3549 129.5591,22.2649 C129.9181,22.1779 130.2961,22.0369 130.6931,21.8469 L130.6511,22.4019 L132.8201,22.4019 L135.7221,10.7619 Z M131.7531,16.7369 C131.6251,16.6549 131.4991,16.5939 131.3741,16.5569 C131.2481,16.5209 131.1201,16.4989 130.9881,16.4989 C130.5181,16.4989 130.0711,16.6979 129.6511,17.0919 C129.2341,17.4839 128.9461,17.9809 128.7981,18.5779 C128.6581,19.1359 128.6831,19.6029 128.8731,19.9779 C129.0641,20.3499 129.3621,20.5359 129.7681,20.5359 C129.9241,20.5359 130.1011,20.5019 130.2891,20.4369 C130.4761,20.3719 130.6841,20.2689 130.9061,20.1299 L131.7531,16.7369 Z M124.1641,22.4079 L121.6511,22.4079 L123.4281,15.2739 L125.9411,15.2779 L124.1641,22.4079 Z M123.9781,12.6149 C124.0721,12.2339 124.2871,11.9119 124.6161,11.6509 C124.9441,11.3869 125.2991,11.2529 125.6781,11.2529 C126.0641,11.2529 126.3551,11.3839 126.5511,11.6459 C126.7471,11.9079 126.7971,12.2289 126.7021,12.6149 C126.6061,12.9959 126.3901,13.3199 126.0601,13.5909 C125.7331,13.8569 125.3771,13.9919 124.9961,13.9919 C124.6261,13.9919 124.3401,13.8589 124.1391,13.5849 C123.9381,13.3139 123.8851,12.9909 123.9781,12.6149 L123.9781,12.6149 Z M118.1691,21.0559 C118.2621,20.6809 118.4731,20.3659 118.7961,20.1029 C119.1181,19.8409 119.4641,19.7109 119.8351,19.7109 C120.2161,19.7109 120.5031,19.8409 120.7051,20.0999 C120.9031,20.3569 120.9551,20.6769 120.8611,21.0559 C120.7691,21.4269 120.5571,21.7429 120.2241,22.0089 C119.8911,22.2709 119.5401,22.4029 119.1631,22.4029 C118.8041,22.4029 118.5251,22.2679 118.3291,21.9989 C118.1331,21.7319 118.0811,21.4149 118.1691,21.0559 L118.1691,21.0559 Z M110.2251,18.4869 C109.9421,19.6249 110.0831,20.5609 110.6421,21.2959 C111.2001,22.0329 112.0431,22.4019 113.1731,22.4019 C114.3141,22.4019 115.3441,22.0329 116.2721,21.2959 C117.1971,20.5609 117.8051,19.6249 118.0851,18.4869 C118.3691,17.3559 118.2301,16.4209 117.6701,15.6879 C117.1101,14.9529 116.2601,14.5879 115.1211,14.5879 C113.9861,14.5879 112.9581,14.9529 112.0331,15.6879 C111.1091,16.4189 110.5071,17.3559 110.2251,18.4869 L110.2251,18.4869 Z M112.7521,18.4939 C112.6011,19.0999 112.6101,19.5909 112.7801,19.9599 C112.9481,20.3349 113.2361,20.5209 113.6411,20.5209 C114.0501,20.5209 114.4291,20.3349 114.7851,19.9579 C115.1401,19.5829 115.3911,19.0969 115.5391,18.4939 C115.6901,17.8969 115.6821,17.4099 115.5131,17.0319 C115.3461,16.6569 115.0601,16.4669 114.6511,16.4669 C114.2461,16.4669 113.8651,16.6549 113.5091,17.0289 C113.1531,17.4059 112.9031,17.8929 112.7521,18.4939 L112.7521,18.4939 Z M98.7371,21.0559 C98.8311,20.6809 99.0401,20.3659 99.3631,20.1029 C99.6851,19.8409 100.0311,19.7109 100.4021,19.7109 C100.7831,19.7109 101.0721,19.8409 101.2721,20.0999 C101.4701,20.3569 101.5221,20.6769 101.4281,21.0559 C101.3361,21.4269 101.1241,21.7429 100.7911,22.0089 C100.4581,22.2709 100.1071,22.4029 99.7321,22.4029 C99.3721,22.4029 99.0931,22.2679 98.8961,21.9989 C98.7001,21.7319 98.6481,21.4149 98.7371,21.0559 L98.7371,21.0559 Z M108.5001,21.6559 C108.0001,21.9049 107.5211,22.0879 107.0691,22.2069 C106.6141,22.3259 106.1621,22.3839 105.7131,22.3839 C104.5241,22.3839 103.6381,22.0299 103.0541,21.3149 C102.4671,20.6059 102.3101,19.7019 102.5821,18.6059 C102.8651,17.4759 103.5121,16.5219 104.5261,15.7549 C105.5391,14.9879 106.6631,14.6039 107.9031,14.6039 C108.3581,14.6039 108.7911,14.6549 109.1981,14.7579 C109.6031,14.8599 109.9851,15.0139 110.3341,15.2229 L109.5031,17.4409 C109.1721,17.2019 108.8401,17.0219 108.5101,16.8989 C108.1791,16.7739 107.8591,16.7109 107.5481,16.7109 C106.9891,16.7109 106.4831,16.8809 106.0271,17.2209 C105.5721,17.5629 105.2841,17.9839 105.1581,18.4869 C105.0231,19.0299 105.0851,19.4609 105.3471,19.7889 C105.6091,20.1159 106.0201,20.2769 106.5791,20.2769 C106.9281,20.2769 107.3191,20.2019 107.7501,20.0529 C108.1851,19.9019 108.7051,19.6579 109.3111,19.3209 L108.5001,21.6559 Z"/>
    <path fill="#22415B" d="M64.0909,17.3271 L64.5529,15.2491 L64.5549,15.2501 L64.8899,13.7331 L65.1659,12.4921 L65.1649,12.4891 L65.3229,11.7751 C65.5279,10.8521 62.5829,11.0651 61.8679,11.1871 C61.1209,11.3151 60.4599,11.6311 59.8869,12.1381 C59.1229,12.8081 58.6099,13.7381 58.3499,14.9091 C58.0939,16.0721 58.2029,16.9911 58.6769,17.6631 C59.1489,18.3361 59.9189,18.6681 60.9839,18.6681 C62.0549,18.6681 62.9759,18.3361 63.7469,17.6631 C63.8689,17.5571 63.9819,17.4461 64.0909,17.3271 L64.0909,17.3271 Z M43.3579,30.0001 L48.6399,30.0001 L53.6339,7.4571 L48.3509,7.4571 L43.3579,30.0001 Z M49.1189,3.3381 C48.9429,4.1371 49.0769,4.8291 49.5199,5.4091 C49.9619,5.9891 50.5799,6.2821 51.3669,6.2821 C52.1749,6.2821 52.9249,5.9951 53.6219,5.4241 C54.3159,4.8541 54.7519,4.1561 54.9319,3.3381 C55.1129,2.5191 54.9869,1.8331 54.5539,1.2831 C54.1149,0.7321 53.4849,0.4541 52.6559,0.4541 C51.8579,0.4541 51.1129,0.7381 50.4179,1.2971 C49.7299,1.8581 49.2949,2.5401 49.1189,3.3381 L49.1189,3.3381 Z M20.0299,22.4011 L25.3139,22.4011 L28.6169,7.4571 L23.3349,7.4571 L20.0299,22.4011 Z M24.1019,3.3381 C24.2789,2.5401 24.7119,1.8581 25.4029,1.2971 C26.0969,0.7381 26.8409,0.4541 27.6389,0.4541 C28.4669,0.4541 29.0979,0.7321 29.5369,1.2831 C29.9709,1.8331 30.0979,2.5191 29.9159,3.3381 C29.7339,4.1561 29.2979,4.8541 28.6069,5.4241 C27.9089,5.9951 27.1589,6.2821 26.3499,6.2821 C25.5619,6.2821 24.9449,5.9891 24.5029,5.4091 C24.0609,4.8291 23.9259,4.1371 24.1019,3.3381 L24.1019,3.3381 Z M30.4289,7.8391 C33.2829,6.6941 41.2579,6.3581 43.6639,7.4461 C44.3559,7.7571 44.8669,8.2041 45.2129,8.7841 C45.4969,9.2901 45.6429,9.9001 45.6509,10.6231 C45.6589,11.3401 45.5069,12.4161 45.1899,13.8451 L43.2989,22.4011 L38.0159,22.4011 L39.7859,14.3951 C40.0519,13.1991 40.0439,12.3351 39.7759,11.7891 C39.3719,10.9771 38.3119,10.8981 37.4979,11.0181 C36.4099,11.1231 35.1839,11.4621 34.7679,11.6791 L32.3979,22.4011 L27.2279,22.4011 L30.4289,7.8391 Z M73.3419,7.8391 L70.1379,22.4011 L75.3089,22.4011 L77.6789,11.6791 C78.0949,11.4621 79.3229,11.1231 80.4099,11.0181 C81.2239,10.8981 82.2829,10.9771 82.6879,11.7891 C82.9049,12.2301 82.9499,12.8781 82.8209,13.7381 L80.9169,22.4011 L80.9259,22.4011 L86.0859,22.4011 L86.2109,22.4011 L88.1029,13.8451 C88.2919,12.9891 88.4209,12.2611 88.4939,11.6601 C88.9429,11.4421 90.1299,11.1201 91.1879,11.0181 C91.9999,10.8981 93.0589,10.9771 93.4649,11.7891 C93.7339,12.3351 93.7379,13.1991 93.4739,14.3951 L91.7049,22.4011 L96.9869,22.4011 L98.8789,13.8451 C99.1959,12.4161 99.3469,11.3401 99.3399,10.6231 C99.3329,9.9001 99.1839,9.2901 98.9019,8.7841 C98.5549,8.2041 98.0439,7.7571 97.3529,7.4461 C95.3919,6.5611 89.7349,6.6191 86.1629,7.2891 C83.3629,6.3951 76.0479,6.7531 73.3419,7.8391 L73.3419,7.8391 Z M71.4689,7.9141 C71.1759,9.2321 68.2589,22.4011 68.2659,22.4011 L63.0799,22.4011 L63.2739,21.8431 C62.3629,22.4831 59.5149,22.9771 57.9299,22.9771 C55.9359,22.9771 54.5059,22.2491 53.6299,20.7941 C52.7589,19.3401 52.5919,17.3911 53.1359,14.9411 C53.6749,12.5071 54.7299,10.5681 56.2929,9.1321 C59.7529,5.9611 65.5439,6.3391 70.5069,6.9391 C71.2269,7.0261 71.6259,7.2011 71.4689,7.9141 L71.4689,7.9141 Z"/>
    <path fill="#E84131" d="M13.3355,3.4649 C13.3355,3.4649 13.3555,3.0189 13.7015,3.2359 C14.0475,3.4519 16.9645,6.1229 16.9645,7.0649 C16.6585,8.2039 14.2405,10.3809 12.9215,10.9949 C12.3385,11.2639 12.8745,9.5819 12.8345,9.1049 C11.6745,8.6629 8.7015,12.1059 8.6795,12.8109 C8.6535,13.5869 12.0015,17.8419 12.4795,17.4729 C12.7415,17.2709 12.5145,15.5729 12.7015,15.1979 C12.7455,15.1039 12.7555,15.0339 13.0845,14.9529 C17.1025,14.9529 20.4695,13.0649 21.2215,8.1519 C22.0135,2.9849 18.8285,0.0009 15.5775,0.0009 L10.2065,0.0009 L6.0295,0.0009 L6.0275,0.0009 C6.0205,0.0009 5.9695,-0.0011 5.8915,0.0009 L4.9265,0.0009 L4.7885,0.6199 C4.7675,0.6719 4.7475,0.7269 4.7385,0.7879 L3.1505,8.0329 L1.6215,14.9469 L1.6335,14.9469 L0.1725,21.6099 L0.1625,21.6719 L0.0005,22.4019 L0.8055,22.4019 L5.3655,22.4019 L5.9155,19.9079 L8.6335,7.6109 C8.9545,6.3709 10.5655,5.0779 11.6815,5.0229 C12.7975,4.9679 12.9125,4.9729 13.0445,4.9769 C13.1045,4.9349 13.1775,4.8489 13.2005,4.6719 C13.2435,4.3429 13.3355,3.4649 13.3355,3.4649"/>
  </g>
</svg>
